<svg width="600" height="457" viewBox="0 0 600 457" fill="none" xmlns="http://www.w3.org/2000/svg">
<path fill-rule="evenodd" clip-rule="evenodd" d="M118.447 174.007C115.728 174.007 114.09 171.607 114.09 167.292C114.09 162.976 115.728 160.657 118.447 160.657C121.145 160.657 122.78 162.976 122.78 167.292C122.78 171.607 121.145 174.007 118.447 174.007ZM118.447 161.988C116.853 161.988 115.792 163.519 115.792 167.292C115.792 171.062 116.853 172.676 118.447 172.676C120.017 172.676 121.082 171.062 121.082 167.292C121.082 163.519 120.017 161.988 118.447 161.988Z" fill="#586DA6"/>
<path fill-rule="evenodd" clip-rule="evenodd" d="M122.082 193.217C121.544 193.159 120.987 193.119 120.41 193.098C120.838 192.222 121.082 190.911 121.082 189.103C121.082 185.333 120.017 183.801 118.447 183.801C116.853 183.801 115.792 185.333 115.792 189.103C115.792 190.989 116.057 192.334 116.521 193.208C116.519 193.21 116.516 193.21 116.514 193.21C115.797 192.645 115.062 192.109 114.31 191.603C114.166 190.861 114.09 190.027 114.09 189.103C114.09 184.788 115.728 182.469 118.447 182.469C121.145 182.469 122.78 184.788 122.78 189.103C122.78 190.769 122.535 192.149 122.082 193.217Z" fill="#586DA6"/>
<path fill-rule="evenodd" clip-rule="evenodd" d="M323.905 173.899C321.185 173.899 319.55 171.499 319.55 167.184C319.55 162.867 321.185 160.548 323.905 160.548C326.602 160.548 328.238 162.867 328.238 167.184C328.238 171.499 326.602 173.899 323.905 173.899ZM323.905 161.88C322.311 161.88 321.252 163.412 321.252 167.184C321.252 170.954 322.311 172.568 323.905 172.568C325.477 172.568 326.538 170.954 326.538 167.184C326.538 163.412 325.477 161.88 323.905 161.88Z" fill="#586DA6"/>
<path fill-rule="evenodd" clip-rule="evenodd" d="M395.42 261.19H393.689C394.155 260.314 394.422 258.966 394.422 257.072C394.422 253.301 393.36 251.767 391.787 251.767C390.193 251.767 389.134 253.301 389.134 257.072C389.134 258.966 389.401 260.314 389.868 261.19H388.134C387.677 260.121 387.432 258.739 387.432 257.072C387.432 252.757 389.07 250.436 391.787 250.436C394.487 250.436 396.12 252.757 396.12 257.072C396.12 258.739 395.876 260.121 395.42 261.19Z" fill="#586DA6"/>
<path fill-rule="evenodd" clip-rule="evenodd" d="M418.641 261.19H416.91C417.376 260.314 417.643 258.966 417.643 257.072C417.643 253.301 416.581 251.767 415.008 251.767C413.414 251.767 412.354 253.301 412.354 257.072C412.354 258.966 412.622 260.314 413.089 261.19H411.354C410.897 260.121 410.653 258.739 410.653 257.072C410.653 252.757 412.289 250.436 415.008 250.436C417.706 250.436 419.341 252.757 419.341 257.072C419.341 258.739 419.096 260.121 418.641 261.19Z" fill="#586DA6"/>
<path fill-rule="evenodd" clip-rule="evenodd" d="M442.498 195.36H434.849V193.988H437.953V184.511H435.489V183.44C436.721 183.239 437.614 182.916 438.356 182.493H439.695V193.988H442.498V195.36Z" fill="#586DA6"/>
<path fill-rule="evenodd" clip-rule="evenodd" d="M460.573 195.602C457.854 195.602 456.219 193.202 456.219 188.885C456.219 184.57 457.854 182.251 460.573 182.251C463.271 182.251 464.907 184.57 464.907 188.885C464.907 193.202 463.271 195.602 460.573 195.602ZM460.573 183.582C458.979 183.582 457.917 185.115 457.917 188.885C457.917 192.657 458.979 194.27 460.573 194.27C462.146 194.27 463.208 192.657 463.208 188.885C463.208 185.115 462.146 183.582 460.573 183.582Z" fill="#586DA6"/>
<path fill-rule="evenodd" clip-rule="evenodd" d="M441.015 261.19H440.303C440.535 260.788 440.723 260.277 440.857 259.649C440.916 260.157 440.969 260.671 441.015 261.19ZM436.603 261.19H434.856C434.368 260.108 434.108 258.689 434.108 256.963C434.108 253.288 435.296 251.06 437.328 250.48C437.644 250.906 437.937 251.305 438.203 251.674C436.755 251.837 435.807 253.403 435.807 256.963C435.807 258.937 436.097 260.319 436.603 261.19Z" fill="#586DA6"/>
<path fill-rule="evenodd" clip-rule="evenodd" d="M509.721 263.438H502.072V262.065H505.174V252.588H502.71V251.519C503.942 251.317 504.837 250.993 505.579 250.571H506.918V262.065H509.721V263.438Z" fill="#586DA6"/>
<path fill-rule="evenodd" clip-rule="evenodd" d="M300.753 438.403C156.864 438.403 40.2185 425.716 40.2185 410.065C40.2185 405.249 51.2629 400.715 70.7437 396.743L70.4361 405.271H76.7264L77.5243 395.446C92.9398 392.667 112.623 390.199 135.576 388.149L135.61 389.859C135.631 390.857 136.297 391.664 137.097 391.664C137.895 391.664 138.561 390.857 138.584 389.859L138.622 387.882C155.867 386.388 174.9 385.128 195.305 384.144L198.043 390.437C198.372 391.185 199.049 391.664 199.688 391.664C199.811 391.664 199.935 391.647 200.052 391.61C200.073 391.603 200.094 391.594 200.117 391.586C200.652 391.383 200.961 390.815 200.957 390.165C200.957 389.911 200.908 389.644 200.806 389.382L198.701 383.983C216.932 383.139 236.23 382.513 256.313 382.138L255.742 383.604C255.64 383.866 255.593 384.134 255.593 384.387C255.591 385.037 255.9 385.605 256.435 385.808C256.572 385.862 256.718 385.888 256.863 385.888C257.503 385.888 258.18 385.407 258.507 384.66L259.63 382.078C273.024 381.847 286.763 381.727 300.753 381.727C305.013 381.727 309.246 381.738 313.455 381.76L313.613 389.859C313.636 390.857 314.302 391.664 315.1 391.664C315.9 391.664 316.566 390.857 316.587 389.859L316.745 381.779C336.052 381.906 354.786 382.263 372.734 382.823L376.047 390.437C376.05 390.444 376.054 390.451 376.057 390.458C376.057 390.459 376.059 390.461 376.059 390.465C376.063 390.47 376.064 390.476 376.068 390.481C376.068 390.483 376.068 390.483 376.07 390.485C376.405 391.205 377.066 391.664 377.692 391.664C377.84 391.664 377.984 391.638 378.121 391.586C378.864 391.303 379.174 390.314 378.811 389.382L376.296 382.936C378.214 383 380.123 383.065 382.023 383.132C382.583 386.199 382.928 388.022 382.928 388.022C382.928 388.022 383.089 388.046 383.364 388.081V393.262C383.364 393.262 384.093 394.164 386.604 394.165C387.812 394.165 388.889 393.951 389.631 393.749L386.645 401.406C386.264 402.393 386.589 403.433 387.373 403.732C387.518 403.788 387.671 403.815 387.826 403.815C388.487 403.815 389.183 403.33 389.536 402.57V402.568C389.54 402.562 389.543 402.555 389.547 402.548C389.547 402.546 389.548 402.545 389.548 402.543C389.552 402.535 389.555 402.528 389.559 402.519L397.725 383.755C413.432 384.44 428.373 385.287 442.395 386.277L443.936 405.271H450.226L449.564 386.801C450.288 386.857 451.019 386.913 451.736 386.968L452.274 414.647C452.298 415.697 453 416.55 453.843 416.55C454.685 416.55 455.388 415.697 455.413 414.647L455.944 387.302C478.486 389.122 498.234 391.331 514.349 393.834L518.128 402.519C518.472 403.309 519.186 403.815 519.861 403.815C519.89 403.815 519.92 403.813 519.948 403.812C520.073 403.803 520.196 403.778 520.314 403.732C520.876 403.517 521.203 402.919 521.202 402.234C521.2 401.966 521.149 401.684 521.042 401.406L518.337 394.473C545.489 398.945 561.288 404.304 561.288 410.065C561.288 425.716 444.642 438.403 300.753 438.403ZM391.2 389.729L391.485 387.758C391.733 387.692 391.882 387.648 391.886 387.647C391.886 387.647 392.107 386.082 392.438 383.531C392.826 383.548 393.213 383.564 393.6 383.579L391.2 389.729Z" fill="#14A8D8"/>
<path fill-rule="evenodd" clip-rule="evenodd" d="M376.047 390.438L336.59 299.765L342.905 297.353L378.811 389.382C379.174 390.314 378.864 391.304 378.121 391.586C377.379 391.868 376.451 391.356 376.047 390.438Z" fill="#613927"/>
<path fill-rule="evenodd" clip-rule="evenodd" d="M377.07 391.512C376.664 391.324 376.293 390.965 376.07 390.485C376.068 390.483 376.068 390.483 376.068 390.481C376.064 390.476 376.063 390.47 376.059 390.465C376.059 390.461 376.057 390.459 376.057 390.458C376.054 390.451 376.05 390.444 376.047 390.437L340.817 309.477C341.583 309.384 342.332 309.284 343.072 309.178L377.07 391.512Z" fill="#39261C"/>
<path fill-rule="evenodd" clip-rule="evenodd" d="M313.613 389.859L311.703 291.575H318.496L316.587 389.859C316.566 390.857 315.9 391.664 315.1 391.664C314.302 391.664 313.636 390.857 313.613 389.859Z" fill="#613927"/>
<path fill-rule="evenodd" clip-rule="evenodd" d="M315.1 391.664C314.302 391.664 313.636 390.857 313.613 389.859L312.068 310.433C312.402 310.44 312.741 310.448 313.079 310.455C313.133 310.455 313.188 310.457 313.242 310.457C313.325 310.458 313.406 310.46 313.488 310.462C313.559 310.463 313.631 310.465 313.701 310.465L315.278 391.642L315.1 391.664Z" fill="#39261C"/>
<path fill-rule="evenodd" clip-rule="evenodd" d="M258.507 384.66L297.964 293.987L291.649 291.575L255.742 383.604C255.382 384.538 255.691 385.524 256.435 385.808C257.176 386.092 258.104 385.578 258.507 384.66Z" fill="#613927"/>
<path fill-rule="evenodd" clip-rule="evenodd" d="M256.858 385.886C256.714 385.886 256.57 385.86 256.435 385.808C255.9 385.605 255.591 385.037 255.593 384.387C255.593 384.134 255.64 383.866 255.742 383.604L285.556 307.19C286.339 307.407 287.155 307.615 288.006 307.813L257.63 385.661C257.385 385.806 257.118 385.886 256.858 385.886Z" fill="#39261C"/>
<path fill-rule="evenodd" clip-rule="evenodd" d="M270.047 299.603C276.938 304.997 287.146 309.963 313.079 310.455C347.191 311.101 365.052 307.375 374.743 290.445C390.93 262.17 370.676 170.819 338.723 191.057C312.016 207.973 306.666 261.973 303.135 269.441C299.604 276.905 253.326 286.509 270.047 299.603Z" fill="#EAF5F4"/>
<path fill-rule="evenodd" clip-rule="evenodd" d="M307.166 303.461C341.279 304.109 359.137 300.382 368.83 283.451C379.878 264.152 373.948 215.467 358.909 192.939C378.158 210.107 387.144 268.785 374.743 290.445C365.052 307.375 347.191 311.101 313.079 310.455C287.146 309.963 276.938 304.997 270.047 299.603C267.701 297.764 266.595 295.996 266.437 294.291C273.353 298.999 283.965 303.021 307.166 303.461Z" fill="#CDDEDA"/>
<path fill-rule="evenodd" clip-rule="evenodd" d="M251.858 204.351C251.858 204.351 246.253 200.546 246.053 198.946C245.851 197.347 241.945 190.869 240.696 189.58C239.444 188.291 232.873 186.101 231.472 185.908C230.071 185.715 222.025 186.372 223.027 187.429C224.029 188.484 229.235 188.098 230.235 188.677C231.237 189.255 231.237 189.255 231.237 189.255C231.237 189.255 230.235 190.561 230.635 191.354C231.036 192.146 228.917 193.362 229.718 194.71C230.519 196.06 229.395 195.965 230.11 197.374C231.295 199.697 234.323 200.992 235.124 200.356C235.725 201.733 238.022 204.539 240.177 204.345C242.33 204.152 247.564 208.873 247.564 208.873L251.858 204.351Z" fill="#DBAE8A"/>
<path fill-rule="evenodd" clip-rule="evenodd" d="M337.328 177.27C337.518 180.893 337.252 187.204 338.33 188.137C339.409 189.073 342.885 188.927 342.885 188.927C342.885 188.927 330.447 204.064 329.335 203.232C328.222 202.4 313.511 190.862 316.819 190.267C320.125 189.671 323.361 189.798 323.266 188.151C323.171 186.505 323.079 184.858 322.984 183.212L337.328 177.27Z" fill="#DBAE8A"/>
<path fill-rule="evenodd" clip-rule="evenodd" d="M351.515 258.1C351.515 258.1 327.247 260.754 321.659 260.864C316.072 260.975 316.35 258.168 316.35 258.168C316.065 252.249 315.025 238.302 313.866 233.576C312.787 229.165 312.311 227.534 311.371 223.341C309.283 214.021 309.376 212.242 307.163 200.739L321.659 189.524C321.659 189.524 323.16 193.817 329.236 193.892C337.358 193.99 339.883 188.515 339.883 188.515L359.654 201.148L361.51 231.879L359.144 257.187L351.515 258.1Z" fill="#DF126F"/>
<path fill-rule="evenodd" clip-rule="evenodd" d="M337.602 173.987C337.163 175.814 336.591 177.608 335.892 179.357C334.611 182.562 332.721 183.713 329.196 183.794C326.719 183.851 324.243 183.909 321.766 183.965C319.865 184.009 317.497 184.069 315.961 182.786C314.439 181.512 314.406 179.369 314.07 177.607C313.638 175.35 313.285 173.08 313.014 170.8C312.483 166.337 312.263 161.839 312.36 157.347C312.372 156.729 312.393 156.108 312.527 155.505C312.58 155.259 312.661 155.007 312.843 154.83C313.074 154.608 313.416 154.547 313.736 154.498C318.378 153.795 323.088 153.504 327.783 153.632C331.101 153.724 334.618 154.097 337.244 156.049C339.887 158.016 341.14 161.21 342.27 164.237C342.451 164.723 342.587 165.371 342.147 165.668" fill="#DBAE8A"/>
<path fill-rule="evenodd" clip-rule="evenodd" d="M266.412 366.311C266.412 366.311 267.328 371.581 268.056 373.384C268.783 375.188 274.929 373.527 275.335 372.359C275.741 371.196 273.402 362.622 273.402 362.622" fill="#DBAE8A"/>
<path fill-rule="evenodd" clip-rule="evenodd" d="M277.474 373.85C278.007 375.795 278.677 379.524 278.677 379.524L272.536 382.099L271.529 381.187C271.529 381.187 270.003 382.965 268.119 383.802C266.72 384.424 263.706 385.231 262.173 385.389C256.813 385.945 250.484 385.461 250.164 384.746C248.833 381.757 255.948 380.955 257.359 380.597C261.416 379.572 266.05 375.773 266.483 373.611C266.795 372.047 266.393 371.771 267.303 371.818C267.303 371.818 268.1 371.778 268.839 372.512C269.975 373.638 271.681 374.152 273.203 373.488C274.072 373.11 274.898 372.554 275.381 371.744C275.381 371.744 276.944 371.906 277.474 373.85Z" fill="#091D3C"/>
<path fill-rule="evenodd" clip-rule="evenodd" d="M293.559 297.4C283.958 299.215 271.903 299.347 262.201 298.116C263.556 301.859 266.885 306.654 268.152 311.925C272.337 329.331 273.789 352.712 274.85 367.177C274.85 367.177 272.841 370.89 266.405 368.063C256.786 345.204 239.994 298.874 240.151 288.823C240.348 276.026 273.534 272.937 297.855 269.786" fill="#0A364F"/>
<path fill-rule="evenodd" clip-rule="evenodd" d="M282.274 378.476C282.274 378.476 282.225 383.822 282.617 385.718C283.011 387.615 289.362 387.002 289.972 385.923C290.58 384.844 289.821 376.01 289.821 376.01" fill="#DBAE8A"/>
<path fill-rule="evenodd" clip-rule="evenodd" d="M291.811 387.748C291.983 389.751 291.971 393.536 291.971 393.536L285.459 395.047L284.631 393.981C284.631 393.981 282.812 395.478 280.803 395.989C279.313 396.368 276.2 396.657 274.662 396.559C269.281 396.212 261.827 394.691 261.642 393.935C260.871 390.771 268.02 391.167 269.476 391.05C273.655 390.715 280.213 387.735 281.028 385.68C281.619 384.188 281.271 383.851 282.158 384.049C282.158 384.049 282.951 384.144 283.545 384.989C284.461 386.288 286.051 387.078 287.668 386.679C288.593 386.449 289.505 386.041 290.127 385.324C290.127 385.324 291.637 385.744 291.811 387.748Z" fill="#091D3C"/>
<path fill-rule="evenodd" clip-rule="evenodd" d="M352.64 270.715C352.64 270.715 337.335 272.176 318.74 271.757C314.409 271.757 281.663 277.672 278.531 283.011C273.377 291.793 281.891 343.133 281.104 379.89C281.104 379.89 285.03 383.046 291.972 380.081C293.7 362.023 304.783 319.43 297.138 299.542C315.19 301.851 329.756 304.141 346.165 298.906C350.009 297.681 352.882 295.07 354.608 290.29C356.341 285.493 355.438 275.006 352.64 270.715Z" fill="#104666"/>
<path fill-rule="evenodd" clip-rule="evenodd" d="M321.659 189.524C321.659 189.524 318.192 189.709 317.517 189.761C314.626 189.981 311.682 190.348 308.949 191.322C305.015 192.723 302.24 196.241 299.041 198.995C295.96 201.645 279.989 216.29 277.01 216.829C274.03 217.369 247.882 200.123 247.882 200.123L241.499 206.268C241.499 206.268 269.873 231.499 278.334 231.541C282.441 231.563 305.089 220.088 312.337 215.628L321.659 189.524Z" fill="#DF126F"/>
<path fill-rule="evenodd" clip-rule="evenodd" d="M300.089 222.316C299.962 222.306 299.834 222.301 299.706 222.301H288.183C297.27 216.915 308.566 208.499 308.566 208.499L310.045 216.981L307.578 218.358C305.365 219.576 302.787 220.939 300.089 222.316ZM268.198 222.301H261.268C251.412 215.084 241.499 206.268 241.499 206.268L242.738 205.075C244.87 206.653 258.194 216.449 268.198 222.301Z" fill="#BA0959"/>
<path fill-rule="evenodd" clip-rule="evenodd" d="M315.606 260.615L314.487 257.102C314.865 257.143 315.1 257.187 315.1 257.187C315.494 257.017 315.884 256.847 316.271 256.674C316.3 257.214 316.327 257.714 316.35 258.168C316.35 258.168 316.192 259.758 318.497 260.497C318.496 260.497 318.496 260.497 318.496 260.497C318.496 260.497 317.228 260.583 315.606 260.615Z" fill="#D7C6BC"/>
<path fill-rule="evenodd" clip-rule="evenodd" d="M365.656 201.219C363.454 197.699 361.043 194.742 358.452 192.538C359.153 192.85 359.872 193.186 360.608 193.548C361.853 194.161 363.081 194.881 363.957 195.931C365.183 197.403 365.558 199.299 365.656 201.219ZM342.787 189.047C342.852 188.97 342.885 188.927 342.885 188.927C342.885 188.927 342.69 188.936 342.377 188.936C341.887 188.936 341.112 188.915 340.349 188.812L339.883 188.515C341.172 188.594 342.39 188.685 343.557 188.795C343.3 188.873 343.045 188.956 342.787 189.047Z" fill="#4B5796"/>
<path fill-rule="evenodd" clip-rule="evenodd" d="M359.691 251.336L361.51 231.879L359.654 201.148L342.07 189.912C342.411 189.502 342.659 189.203 342.787 189.047C343.045 188.956 343.3 188.873 343.557 188.795C349.002 189.315 353.341 190.275 358.452 192.538C361.043 194.742 363.454 197.699 365.656 201.219V201.221C363.584 197.909 361.327 195.096 358.909 192.939C361.408 196.682 363.654 201.146 365.614 206.078C365.08 220.752 361.863 242.725 359.691 251.336Z" fill="#D7C6BC"/>
<path fill-rule="evenodd" clip-rule="evenodd" d="M365.614 206.078C363.654 201.146 361.408 196.682 358.909 192.939C361.327 195.096 363.584 197.909 365.656 201.221C365.691 201.904 365.691 202.592 365.684 203.264C365.674 204.167 365.649 205.106 365.614 206.078Z" fill="#BFB3AB"/>
<path fill-rule="evenodd" clip-rule="evenodd" d="M342.07 189.912L340.349 188.812C341.112 188.915 341.887 188.936 342.377 188.936C342.69 188.936 342.885 188.927 342.885 188.927C342.885 188.927 342.852 188.97 342.787 189.047C342.659 189.203 342.411 189.502 342.07 189.912Z" fill="#E89283"/>
<path fill-rule="evenodd" clip-rule="evenodd" d="M318.638 260.498C318.591 260.498 318.543 260.498 318.496 260.497C316.192 259.758 316.35 258.168 316.35 258.168C316.327 257.714 316.301 257.214 316.271 256.674C326.774 252.011 334.565 246.356 345.511 242.267C346.425 232.211 346.996 221.203 350.228 207.137L339.883 188.515L359.654 201.148L361.51 231.879L359.691 251.336C359.132 253.55 358.642 254.883 358.285 254.978C356.455 255.46 329.039 260.498 318.638 260.498Z" fill="#BA0959"/>
<path fill-rule="evenodd" clip-rule="evenodd" d="M319.967 258.112C318.749 256.634 316.524 256.42 314.564 256.468C313.112 256.5 311.664 256.613 310.225 256.799C309.569 256.886 308.815 257.033 308.745 257.716C308.674 258.399 311.926 257.716 313.631 258.19C310.291 258.465 306.936 258.553 303.588 258.452C303.198 258.442 302.795 258.428 302.433 258.567C302.071 258.706 301.757 259.039 301.781 259.414C301.801 259.707 302.013 259.952 302.24 260.148C303.177 260.96 304.456 261.28 305.695 261.488C310.817 262.351 316.2 262.202 320.962 260.192" fill="#F1B2A8"/>
<path fill-rule="evenodd" clip-rule="evenodd" d="M349.524 206.873C349.256 221.91 348.147 228.789 348.451 243.826C340.608 245.438 327.361 251.842 316.257 256.6C316.257 256.6 316.599 260.197 317.627 261.987C318.475 262.286 356.473 254.374 359.385 251.793C362.004 249.469 365.47 221.286 365.684 203.266C365.714 200.706 365.621 197.929 363.957 195.931C363.081 194.881 361.853 194.161 360.608 193.548C353.366 189.984 348.002 189.012 339.883 188.515" fill="#DF126F"/>
<path fill-rule="evenodd" clip-rule="evenodd" d="M251.173 262.234H316.123L304.477 225.696C303.832 223.679 301.897 222.301 299.706 222.301H242.824C240.648 222.301 239.091 224.329 239.731 226.33L251.173 262.234Z" fill="#9297A5"/>
<mask id="mask0_11_181" style="mask-type:alpha" maskUnits="userSpaceOnUse" x="237" y="222" width="77" height="40">
<path d="M313.996 261.19H249.048L237.936 226.33C237.298 224.329 238.856 222.301 241.031 222.301H297.911C300.103 222.301 302.04 223.679 302.683 225.696L313.996 261.19ZM273.741 235.935C271.065 235.939 268.651 236.592 266.831 237.737C265.922 238.312 265.157 239.014 264.611 239.841C264.064 240.665 263.741 241.62 263.743 242.625L263.757 242.977C263.83 244.017 264.24 244.99 264.864 245.829C265.806 247.089 267.215 248.078 268.89 248.772C270.567 249.464 272.518 249.856 274.587 249.856C277.265 249.854 279.677 249.2 281.499 248.055C282.408 247.479 283.172 246.778 283.719 245.95C284.266 245.127 284.589 244.169 284.587 243.165L284.575 242.816L283.374 242.896L284.575 242.815C284.499 241.774 284.09 240.802 283.464 239.963C282.522 238.703 281.112 237.715 279.438 237.02C277.761 236.33 275.81 235.935 273.741 235.935ZM274.573 247.54C272.247 247.54 270.105 246.935 268.588 246.018C267.827 245.56 267.228 245.029 266.822 244.481C266.414 243.931 266.198 243.378 266.156 242.816L266.149 242.625C266.15 242.091 266.31 241.587 266.641 241.084C267.131 240.335 268.038 239.613 269.272 239.092C270.5 238.571 272.042 238.251 273.738 238.251C273.74 238.251 273.74 238.251 273.741 238.251C273.747 238.251 273.754 238.251 273.759 238.251C276.082 238.251 278.223 238.857 279.74 239.773C280.501 240.232 281.102 240.765 281.508 241.311C281.916 241.861 282.132 242.415 282.174 242.977L282.181 243.165C282.179 243.701 282.019 244.205 281.689 244.707C281.197 245.457 280.292 246.179 279.058 246.7C277.828 247.222 276.288 247.54 274.592 247.54C274.59 247.54 274.588 247.54 274.587 247.54C274.581 247.54 274.576 247.54 274.573 247.54Z" fill="white"/>
</mask>
<g mask="url(#mask0_11_181)">
<path fill-rule="evenodd" clip-rule="evenodd" d="M313.996 261.19H249.048L237.936 226.33C237.298 224.329 238.856 222.301 241.031 222.301H297.911C300.103 222.301 302.04 223.679 302.683 225.696L313.996 261.19ZM273.741 235.935C271.065 235.939 268.651 236.592 266.831 237.737C265.922 238.312 265.157 239.014 264.611 239.841C264.064 240.665 263.741 241.62 263.743 242.625L263.757 242.977C263.83 244.017 264.24 244.99 264.864 245.829C265.806 247.089 267.215 248.078 268.89 248.772C270.567 249.464 272.518 249.856 274.587 249.856C277.265 249.854 279.677 249.2 281.499 248.055C282.408 247.479 283.172 246.778 283.719 245.95C284.266 245.127 284.589 244.169 284.587 243.165L284.575 242.816L283.374 242.896L284.575 242.815C284.499 241.774 284.09 240.802 283.464 239.963C282.522 238.703 281.112 237.715 279.438 237.02C277.761 236.33 275.81 235.935 273.741 235.935ZM274.573 247.54C272.247 247.54 270.105 246.935 268.588 246.018C267.827 245.56 267.228 245.029 266.822 244.481C266.414 243.931 266.198 243.378 266.156 242.816L266.149 242.625C266.15 242.091 266.31 241.587 266.641 241.084C267.131 240.335 268.038 239.613 269.272 239.092C270.5 238.571 272.042 238.251 273.738 238.251C273.74 238.251 273.74 238.251 273.741 238.251C273.747 238.251 273.754 238.251 273.759 238.251C276.082 238.251 278.223 238.857 279.74 239.773C280.501 240.232 281.102 240.765 281.508 241.311C281.916 241.861 282.132 242.415 282.174 242.977L282.181 243.165C282.179 243.701 282.019 244.205 281.689 244.707C281.197 245.457 280.292 246.179 279.058 246.7C277.828 247.222 276.288 247.54 274.592 247.54C274.59 247.54 274.588 247.54 274.587 247.54C274.581 247.54 274.576 247.54 274.573 247.54Z" fill="url(#paint0_linear_11_181)"/>
</g>
<path fill-rule="evenodd" clip-rule="evenodd" d="M325.094 167.889C324.823 169.633 324.159 170.47 322.354 170.678C319.793 170.974 319.299 170.002 318.919 168.828C318.543 167.654 318.413 166.675 318.441 166.406C318.522 165.67 319.06 165.572 320.672 165.278C322.283 164.983 324.436 164.625 324.754 164.948C325.071 165.273 325.331 166.37 325.094 167.889ZM315.721 169.215C315.655 170.443 315.021 171.566 313.603 171.737C312.283 171.898 311.678 171.223 310.966 169.599C310.346 168.184 310.316 167.059 310.539 166.67C310.764 166.279 311.474 166.293 313.112 166.193C314.749 166.093 315.295 166.059 315.561 166.754C315.659 167.008 315.786 167.987 315.721 169.215ZM326.164 164.373C326.041 163.811 324.744 163.7 323.441 163.857C322.137 164.014 318.664 164.435 317.951 164.97C317.236 165.506 317.279 165.892 316.898 165.932C316.524 165.971 316.499 165.596 315.668 165.247C314.838 164.899 312.835 165.141 311.531 165.3C310.228 165.457 308.991 165.734 309.017 166.308C309.042 166.883 309.27 167.881 309.537 168.04C309.803 168.2 309.803 168.172 310.827 170.44C311.4 171.707 312.279 172.432 313.965 172.079C316.107 171.631 316.244 169.28 316.409 168.299C316.575 167.318 316.728 167.172 317.054 167.13C317.387 167.089 317.603 167.192 318.018 168.104C318.431 169.016 318.729 171.118 320.926 171.237C323.802 171.392 325.048 170.443 325.445 168.669C325.985 166.265 325.862 166.257 326.078 166.039L328.227 166.213L328.18 165.496L326.164 164.373Z" fill="#3E367F"/>
<path fill-rule="evenodd" clip-rule="evenodd" d="M343.523 160.532C343.37 159.253 343.131 158.005 342.81 156.826C341.933 153.595 339.88 150.855 336.809 149.256C332.895 147.218 327.521 146.799 323.232 147.954C320.747 148.624 319.824 149.884 318.547 149.848C317.566 149.82 316.341 149.185 315.07 148.747C305.356 145.388 306.985 154.537 308.021 157.051C308.479 158.162 310.682 158.97 310.975 159.432C311.269 159.894 311.235 162.159 311.422 163.155C311.608 164.153 312.631 164.532 312.631 164.532C312.631 164.532 312.685 161.587 312.734 161.186C312.863 160.137 313.22 159.048 314.169 158.427C315.16 157.78 316.511 157.678 317.663 157.484C318.861 157.282 324.438 158.312 324.811 158.622C326.624 160.121 327.092 163.537 327.602 165.547C327.839 166.484 328.085 167.115 328.482 167.101C328.784 164.336 329.781 164.264 331.502 165.21C332.419 165.714 332.932 167.466 332.964 168.95C332.999 170.709 331.981 172.644 330.066 173.036C329.38 173.177 331.449 176.952 332.405 177.894C332.721 178.204 333.032 178.528 333.419 178.75C333.779 178.955 334.187 179.061 334.588 179.166C335.052 179.288 335.516 179.41 335.978 179.53C336.602 179.694 337.263 179.856 337.883 179.687C338.908 179.41 339.449 178.363 339.912 177.441C340.671 175.924 341.544 174.457 342.165 172.884C343.627 169.176 344.024 164.681 343.523 160.532Z" fill="#3E367F"/>
<path fill-rule="evenodd" clip-rule="evenodd" d="M76.1499 390.438L115.607 299.765L109.292 297.353L73.3853 389.382C73.025 390.314 73.3326 391.304 74.0742 391.586C74.8177 391.868 75.7457 391.356 76.1499 390.438Z" fill="#613927"/>
<path fill-rule="evenodd" clip-rule="evenodd" d="M78.3398 385.402L78.5086 383.317L109.125 309.178C109.863 309.284 110.614 309.384 111.38 309.477L78.3398 385.402Z" fill="#39261C"/>
<path fill-rule="evenodd" clip-rule="evenodd" d="M138.584 389.859L140.494 291.575H133.701L135.61 389.859C135.631 390.857 136.297 391.664 137.097 391.664C137.895 391.664 138.561 390.857 138.584 389.859Z" fill="#613927"/>
<path fill-rule="evenodd" clip-rule="evenodd" d="M137.097 391.664L136.917 391.642L138.496 310.465C138.566 310.465 138.638 310.463 138.708 310.462C138.791 310.46 138.87 310.458 138.954 310.457C139.009 310.457 139.063 310.455 139.118 310.455C139.455 310.448 139.795 310.44 140.127 310.433L138.584 389.859C138.561 390.857 137.895 391.664 137.097 391.664Z" fill="#39261C"/>
<path fill-rule="evenodd" clip-rule="evenodd" d="M198.043 390.438L158.588 299.765L164.903 297.353L200.806 389.382C201.168 390.314 200.861 391.304 200.117 391.586C199.376 391.868 198.446 391.356 198.043 390.438Z" fill="#613927"/>
<path fill-rule="evenodd" clip-rule="evenodd" d="M199.692 391.664C199.432 391.664 199.166 391.584 198.92 391.439L187.756 362.827H189.194C189.194 362.827 189.375 362.145 189.702 360.919L200.806 389.382C200.908 389.644 200.957 389.911 200.957 390.165C200.961 390.815 200.652 391.383 200.117 391.586C200.094 391.594 200.073 391.603 200.052 391.61C199.935 391.645 199.815 391.664 199.692 391.664ZM174.323 328.399L166.105 307.336C166.947 307.113 167.752 306.879 168.525 306.637L175.164 323.655L174.323 328.399Z" fill="#39261C"/>
<path fill-rule="evenodd" clip-rule="evenodd" d="M182.15 299.603C175.258 304.997 165.051 309.963 139.118 310.455C105.004 311.101 87.1452 307.375 77.454 290.445C61.2652 262.17 81.521 170.819 113.473 191.057C140.181 207.973 145.531 261.973 149.062 269.441C152.593 276.905 198.871 286.509 182.15 299.603Z" fill="#EAF5F4"/>
<path fill-rule="evenodd" clip-rule="evenodd" d="M145.03 303.461C110.918 304.109 93.0594 300.382 83.3664 283.451C72.3167 264.152 78.2467 215.467 93.2843 192.939C74.0391 210.107 65.0527 268.785 77.454 290.445C87.1452 307.375 105.004 311.101 139.118 310.455C165.051 309.963 175.258 304.997 182.15 299.603C184.496 297.764 185.602 295.996 185.76 294.291C178.844 298.999 168.232 303.021 145.03 303.461Z" fill="#CDDEDA"/>
<path fill-rule="evenodd" clip-rule="evenodd" d="M187.983 366.938C188.424 369.332 183.721 375.663 190.034 380.987C196.344 386.302 210.691 391.912 201.184 392.124C191.678 392.335 182.561 390.214 177.719 387.916C172.887 385.615 176.744 382.001 170.749 380.182C162.847 377.779 162.934 377.292 166.755 369.016C172.016 357.624 186.561 359.199 187.983 366.938Z" fill="#091D3C"/>
<path fill-rule="evenodd" clip-rule="evenodd" d="M197.136 375.034C198.24 377.101 203.522 381.875 210.842 385.025C218.157 388.168 233.669 389.646 225.052 392.416C216.438 395.184 206.392 393.506 201.3 392.723C196.216 391.933 191.284 391.828 185.278 391.792C177.362 391.742 177.302 391.273 178.369 382.681C179.839 370.859 193.574 368.356 197.136 375.034Z" fill="#091D3C"/>
<path fill-rule="evenodd" clip-rule="evenodd" d="M178.522 370.257L181.591 377.495C181.591 377.495 189.166 379.269 192.792 377.415C196.416 375.563 194.961 373.977 194.961 373.977L191.786 363.251L178.522 370.257Z" fill="#DBAE8A"/>
<path fill-rule="evenodd" clip-rule="evenodd" d="M144.116 273.291C144.116 273.291 176.614 280.1 188.407 282.876C200.202 285.65 209.373 290.442 203.868 309.357C198.367 328.274 189.194 362.827 189.194 362.827H168.226L179.234 300.673L117.909 293.72L106.612 269.592L144.116 273.291Z" fill="#17549C"/>
<path fill-rule="evenodd" clip-rule="evenodd" d="M96.244 273.291C97.6413 283.045 94.6728 294.258 110.396 298.655C126.121 303.053 150.672 303.388 150.672 303.388L175.283 374.364C175.283 374.364 182.15 375.357 190.537 372.864C193.985 371.84 195.221 367.618 195.221 367.618L172.953 295.059C171.207 289.381 166.488 285.006 160.528 283.541L122.769 272.496L96.244 273.291Z" fill="#3374C1"/>
<path fill-rule="evenodd" clip-rule="evenodd" d="M101.896 240.594C103.415 244.389 103.779 248.53 102.859 252.51C101.035 260.409 103.109 260.938 103.109 260.938C103.109 260.938 114.234 267.733 123.484 270.508C130.116 272.494 135.764 272.159 135.608 265.114L135.603 265.016C135.592 264.588 135.58 264.181 135.569 263.781C135.257 247.948 138.689 247.143 139.534 229.415C140.406 211.225 135.353 201.08 130.351 196.681C125.34 192.29 118.498 192.127 105.633 195.054C95.9681 197.244 92.7817 199.713 92.8608 206.598C92.8871 208.884 93.272 211.662 93.9012 215.07C95.4971 223.733 99.3075 234.131 101.896 240.594Z" fill="#FFDD35"/>
<path fill-rule="evenodd" clip-rule="evenodd" d="M106.754 253.973C105.334 253.861 103.935 253.773 102.598 253.719C102.675 253.337 102.761 252.934 102.859 252.51C103.193 251.064 103.359 249.597 103.36 248.132C103.362 245.566 102.863 243.011 101.896 240.594C101.079 238.552 100.139 236.118 99.1862 233.471C99.2952 232.123 99.3391 231.296 99.3391 231.296L98.3724 231.162C96.5797 225.98 94.8503 220.219 93.9012 215.07C93.272 211.662 92.8871 208.884 92.8607 206.598L96.6782 205.228L103.531 208.8C103.531 208.8 103.969 214.4 103.54 220.285C103.288 223.686 103.645 227.098 104.693 230.361C106.064 234.611 107.74 240.502 107.768 243.988C107.789 247.079 107.266 250.96 106.754 253.973Z" fill="#EBC924"/>
<path fill-rule="evenodd" clip-rule="evenodd" d="M132.98 164.146C132.98 164.146 133.838 166.453 132.539 168.287L127.235 161.374L130.933 161.342L132.98 164.146Z" fill="#3E367F"/>
<path fill-rule="evenodd" clip-rule="evenodd" d="M104.169 173.285C104.404 182.199 112.392 187.364 112.392 187.364L111.858 195.476L117.247 198.837L120.946 201.143L123.068 196.874L123.36 191.644C123.433 190.428 124.339 189.414 125.585 189.159C126.964 188.875 128.88 188.1 130.84 186.101L131.175 185.702L131.188 185.695C134.689 181.103 136.014 163.515 124.026 158.522C111.646 153.353 103.928 164.361 104.169 173.285Z" fill="#DBAE8A"/>
<path fill-rule="evenodd" clip-rule="evenodd" d="M117.099 176.032C116.63 176.216 116.184 175.519 116.184 175.519C116.184 175.519 113.582 169.9 112.689 169.039C111.09 167.482 107.32 167.625 107.021 172.444C106.786 176.176 111.368 184.132 112.774 186.47C112.988 186.838 112.902 187.331 112.54 187.598C112.391 187.699 112.199 187.762 112.029 187.782H111.964C111.751 187.782 111.538 187.72 111.368 187.577C108.406 185.076 95.3653 173.038 105.721 161.721C105.721 161.721 113.944 162.233 115.203 166.047C116.459 169.882 117.356 175.047 117.356 175.047C117.356 175.047 117.59 175.827 117.099 176.032Z" fill="#3E367F"/>
<path fill-rule="evenodd" clip-rule="evenodd" d="M132.98 164.146C132.98 164.146 125.783 158.747 114.853 165.325L105.902 163.126C105.902 163.126 105.526 163.009 105.726 161.719C105.923 160.428 106.911 147.765 122.588 150.611C131.603 152.247 137.125 158.26 132.98 164.146Z" fill="#3E367F"/>
<path fill-rule="evenodd" clip-rule="evenodd" d="M111.923 191.696C111.923 191.696 110.621 192.393 109.326 194.269C109.326 194.269 111.102 195.033 112.653 195.945C114.069 196.777 120.871 201.4 120.871 201.4L122.873 197.447C122.873 197.447 115.77 192.731 111.923 191.696Z" fill="#DF126F"/>
<path fill-rule="evenodd" clip-rule="evenodd" d="M122.873 197.447C122.873 197.447 125.251 198.23 125.982 199.942C125.982 199.942 127.2 197.697 125.644 193.7C125.644 193.7 124.34 192.513 123.335 192.089L122.873 197.447Z" fill="#DF126F"/>
<path fill-rule="evenodd" clip-rule="evenodd" d="M103.954 268.609C103.954 268.609 105.22 270.14 105.592 270.337C105.967 270.535 106.032 270.113 105.89 269.815C105.747 269.515 104.009 268.206 103.954 268.609Z" fill="#DDB690"/>
<path fill-rule="evenodd" clip-rule="evenodd" d="M112.029 187.782H111.964C111.751 187.782 111.538 187.72 111.368 187.577C108.406 185.076 95.3652 173.038 105.721 161.721C105.721 161.721 105.211 163.688 105.424 165.328C105.424 165.328 98.8171 175.602 112.029 187.782Z" fill="#3E367F"/>
<path fill-rule="evenodd" clip-rule="evenodd" d="M83.0553 229.051C83.0553 229.051 76.1323 259.715 79.3908 262.056C82.6476 264.397 119.611 264.749 123.045 265.284C126.481 265.815 140.578 268.015 147.779 261.906C148.711 261.119 143.399 261.463 142.146 258.795C140.893 256.124 142.807 256.434 142.143 255.309C139.592 250.999 125.015 256.244 125.015 256.244C125.015 256.244 101.153 252.275 94.2369 254.172C98.39 249.333 99.3391 231.296 99.3391 231.296L83.0553 229.051Z" fill="#DBAE8A"/>
<path fill-rule="evenodd" clip-rule="evenodd" d="M81.1625 230.623C81.1625 230.623 85.8024 202.504 94.6236 198.717C103.448 194.93 109.688 207.075 106.441 219.547C103.197 232.022 102.353 236.595 102.353 236.595C102.353 236.595 89.1189 237.869 81.1625 230.623Z" fill="#FFDD35"/>
<path fill-rule="evenodd" clip-rule="evenodd" d="M76.7264 405.271H70.4361L75.417 266.486H87.9958L76.7264 405.271Z" fill="#E5E6E3"/>
<path fill-rule="evenodd" clip-rule="evenodd" d="M86.5986 283.705H86.5968L87.4985 272.609L86.5986 283.705Z" fill="#B4BEBB"/>
<path fill-rule="evenodd" clip-rule="evenodd" d="M74.7984 283.705L75.1965 272.609L74.8001 283.705" fill="#A0ACAB"/>
<path fill-rule="evenodd" clip-rule="evenodd" d="M443.936 405.271H450.226L445.247 266.486H432.666L443.936 405.271Z" fill="#E5E6E3"/>
<path fill-rule="evenodd" clip-rule="evenodd" d="M457.504 272.609H63.1581C60.1702 272.609 57.7483 270.278 57.7483 267.399V266.398C57.7483 263.523 60.1702 261.19 63.1581 261.19H457.504C460.494 261.19 462.916 263.523 462.916 266.398V267.399C462.916 270.278 460.494 272.609 457.504 272.609Z" fill="#BDC2C8"/>
<path fill-rule="evenodd" clip-rule="evenodd" d="M102.874 261.19H193.781V258.795H104.93C103.793 258.795 102.874 259.68 102.874 260.772V261.19Z" fill="#9297A5"/>
<mask id="mask1_11_181" style="mask-type:alpha" maskUnits="userSpaceOnUse" x="133" y="221" width="69" height="41">
<path d="M195.245 261.19H135.469L141.383 224.99C141.687 223.138 143.48 221.634 145.391 221.634H143.719C141.809 221.634 140.014 223.138 139.714 224.99L133.796 261.19L139.633 225.479L139.714 224.99C140.014 223.138 141.809 221.634 143.719 221.634H198.251C200.161 221.634 201.464 223.138 201.16 224.99L195.245 261.19ZM168.813 234.917C165.119 234.917 161.648 237.825 161.063 241.412C160.476 244.998 162.998 247.906 166.692 247.906C170.388 247.906 173.858 244.998 174.443 241.412C175.03 237.825 172.51 234.917 168.813 234.917Z" fill="white"/>
</mask>
<g mask="url(#mask1_11_181)">
<path fill-rule="evenodd" clip-rule="evenodd" d="M195.245 261.19H135.469L141.383 224.99C141.687 223.138 143.48 221.634 145.391 221.634H143.719C141.809 221.634 140.014 223.138 139.714 224.99L133.796 261.19L139.633 225.479L139.714 224.99C140.014 223.138 141.809 221.634 143.719 221.634H198.251C200.161 221.634 201.464 223.138 201.16 224.99L195.245 261.19ZM168.813 234.917C165.119 234.917 161.648 237.825 161.063 241.412C160.476 244.998 162.998 247.906 166.692 247.906C170.388 247.906 173.858 244.998 174.443 241.412C175.03 237.825 172.51 234.917 168.813 234.917Z" fill="url(#paint1_linear_11_181)"/>
</g>
<mask id="mask2_11_181" style="mask-type:alpha" maskUnits="userSpaceOnUse" x="133" y="221" width="13" height="41">
<path d="M135.469 261.19H133.796L139.714 224.99C140.014 223.138 141.809 221.634 143.719 221.634H145.391C143.48 221.634 141.687 223.138 141.383 224.99L135.469 261.19Z" fill="white"/>
</mask>
<g mask="url(#mask2_11_181)">
<path fill-rule="evenodd" clip-rule="evenodd" d="M135.469 261.19H133.796L139.714 224.99C140.014 223.138 141.809 221.634 143.719 221.634H145.391C143.48 221.634 141.687 223.138 141.383 224.99L135.469 261.19Z" fill="url(#paint2_linear_11_181)"/>
</g>
<mask id="mask3_11_181" style="mask-type:alpha" maskUnits="userSpaceOnUse" x="158" y="232" width="19" height="18">
<path d="M166.307 249.645C161.481 249.645 158.186 245.902 158.953 241.285C159.717 236.667 164.252 232.924 169.078 232.924C173.907 232.924 177.2 236.667 176.433 241.285C175.668 245.902 171.136 249.645 166.307 249.645Z" fill="white"/>
</mask>
<g mask="url(#mask3_11_181)">
<path fill-rule="evenodd" clip-rule="evenodd" d="M166.307 249.645C161.481 249.645 158.186 245.902 158.953 241.285C159.717 236.667 164.252 232.924 169.078 232.924C173.907 232.924 177.2 236.667 176.433 241.285C175.668 245.902 171.136 249.645 166.307 249.645Z" fill="url(#paint3_linear_11_181)"/>
</g>
<path fill-rule="evenodd" clip-rule="evenodd" d="M425.998 378.614L427.185 385.456H432.605L434.939 385.072L433.231 374.44L425.998 378.614Z" fill="#DBAE8A"/>
<path fill-rule="evenodd" clip-rule="evenodd" d="M433.969 376.656C433.45 376.886 432.902 377.089 432.334 377.28C429.341 378.251 425.308 378.775 425.308 378.775C418.824 368.54 402.008 318.69 402.008 318.69C401.027 314.7 404.612 316.476 408.412 318.251C410.609 319.277 412.878 320.304 414.377 320.216C415.794 320.14 417.14 320.331 418.147 320.746C422.058 322.339 427.795 332.985 427.795 332.985C427.795 332.985 429.542 336.662 431.366 344.265C433.192 351.859 433.969 376.656 433.969 376.656Z" fill="#7D9FAD"/>
<path fill-rule="evenodd" clip-rule="evenodd" d="M426.828 384.462C426.828 384.462 429.146 384.504 430.972 383.848C433.162 383.063 434.463 381.72 434.463 381.72C434.463 381.72 440.215 385.103 440.208 391.175C440.206 391.491 439.99 391.777 439.681 391.887C439.681 391.887 425.884 397.785 421.137 399.4C418.226 400.39 413.523 401.296 413.523 401.296C413.175 401.371 412.834 401.249 412.711 400.945C412.462 400.326 412.339 399.246 413.746 398.206C415.884 396.628 418.223 395.339 419.847 394.033C421.469 392.724 423.128 389.118 424.443 388.092C426.113 386.789 426.828 384.462 426.828 384.462Z" fill="#091D3C"/>
<path fill-rule="evenodd" clip-rule="evenodd" d="M455.413 414.647L457.425 310.981H450.26L452.274 414.647C452.298 415.697 453 416.55 453.843 416.55C454.685 416.55 455.388 415.697 455.413 414.647Z" fill="#613927"/>
<path fill-rule="evenodd" clip-rule="evenodd" d="M389.559 402.519L431.174 306.884L424.515 304.34L386.645 401.406C386.264 402.393 386.589 403.433 387.373 403.732C388.155 404.032 389.135 403.49 389.559 402.519Z" fill="#613927"/>
<path fill-rule="evenodd" clip-rule="evenodd" d="M518.128 402.519L476.509 306.884L483.17 304.34L521.042 401.406C521.423 402.393 521.098 403.433 520.314 403.732C519.532 404.032 518.551 403.49 518.128 402.519Z" fill="#613927"/>
<path fill-rule="evenodd" clip-rule="evenodd" d="M388.48 403.654L420.568 325.945C421.323 326.087 422.04 326.217 422.71 326.337L389.559 402.519C389.555 402.528 389.552 402.535 389.548 402.543C389.548 402.545 389.547 402.546 389.547 402.548C389.543 402.555 389.54 402.562 389.536 402.568V402.57C389.301 403.078 388.909 403.455 388.48 403.654Z" fill="#39261C"/>
<path fill-rule="evenodd" clip-rule="evenodd" d="M453.843 416.55L453.655 416.526L455.525 320.23C456.088 320.316 456.659 320.387 457.241 320.441L455.413 414.647C455.388 415.697 454.685 416.55 453.843 416.55Z" fill="#39261C"/>
<path fill-rule="evenodd" clip-rule="evenodd" d="M519.948 403.812C520.073 403.803 520.196 403.778 520.314 403.732C520.876 403.517 521.203 402.919 521.202 402.234C521.203 402.919 520.876 403.517 520.314 403.732C520.196 403.778 520.073 403.803 519.948 403.812Z" fill="#29367F"/>
<path fill-rule="evenodd" clip-rule="evenodd" d="M519.866 403.815C519.592 403.815 519.31 403.73 519.052 403.578L483.81 313.251L486.402 312.623L521.042 401.406C521.149 401.684 521.2 401.966 521.202 402.234C521.203 402.919 520.876 403.517 520.314 403.732C520.196 403.778 520.073 403.803 519.948 403.812C519.922 403.813 519.894 403.815 519.866 403.815Z" fill="#39261C"/>
<path fill-rule="evenodd" clip-rule="evenodd" d="M403.37 258.391H337.521L324.485 218.952C323.828 216.964 325.37 214.938 327.537 214.938H386.666C388.06 214.938 389.294 215.807 389.717 217.083L403.37 258.391Z" fill="#FFFFFE"/>
<path fill-rule="evenodd" clip-rule="evenodd" d="M402.305 258.391H339.258L326.345 219.681C325.695 217.731 327.22 215.742 329.366 215.742H385.761C387.141 215.742 388.362 216.592 388.78 217.847L402.305 258.391Z" fill="#E1EDF3"/>
<path fill-rule="evenodd" clip-rule="evenodd" d="M362.751 223.059H334.025C333.598 223.059 333.252 222.724 333.252 222.313C333.252 221.9 333.598 221.567 334.025 221.567H362.751C363.178 221.567 363.524 221.9 363.524 222.313C363.524 222.724 363.178 223.059 362.751 223.059Z" fill="#091D3C"/>
<path fill-rule="evenodd" clip-rule="evenodd" d="M367.198 226.506H335.168C334.739 226.506 334.393 226.173 334.393 225.76C334.393 225.347 334.739 225.014 335.168 225.014H367.198C367.626 225.014 367.974 225.347 367.974 225.76C367.974 226.173 367.626 226.506 367.198 226.506Z" fill="#091D3C"/>
<path fill-rule="evenodd" clip-rule="evenodd" d="M364.231 229.953H336.335C335.906 229.953 335.558 229.62 335.558 229.207C335.558 228.794 335.906 228.461 336.335 228.461H364.231C364.66 228.461 365.006 228.794 365.006 229.207C365.006 229.62 364.66 229.953 364.231 229.953Z" fill="#091D3C"/>
<path fill-rule="evenodd" clip-rule="evenodd" d="M359.58 233.4H337.47C337.043 233.4 336.695 233.067 336.695 232.654C336.695 232.241 337.043 231.908 337.47 231.908H359.58C360.009 231.908 360.357 232.241 360.357 232.654C360.357 233.067 360.009 233.4 359.58 233.4Z" fill="#091D3C"/>
<path fill-rule="evenodd" clip-rule="evenodd" d="M370.672 236.847H338.641C338.214 236.847 337.867 236.514 337.867 236.101C337.867 235.689 338.214 235.355 338.641 235.355H370.672C371.099 235.355 371.446 235.689 371.446 236.101C371.446 236.514 371.099 236.847 370.672 236.847Z" fill="#091D3C"/>
<path fill-rule="evenodd" clip-rule="evenodd" d="M367.686 240.294H339.787C339.36 240.294 339.013 239.961 339.013 239.548C339.013 239.137 339.36 238.802 339.787 238.802H367.686C368.113 238.802 368.459 239.137 368.459 239.548C368.459 239.961 368.113 240.294 367.686 240.294Z" fill="#091D3C"/>
<path fill-rule="evenodd" clip-rule="evenodd" d="M374.105 247.187H342.073C341.646 247.187 341.298 246.854 341.298 246.443C341.298 246.032 341.646 245.697 342.073 245.697H374.105C374.532 245.697 374.878 246.032 374.878 246.443C374.878 246.854 374.532 247.187 374.105 247.187Z" fill="#091D3C"/>
<path fill-rule="evenodd" clip-rule="evenodd" d="M375.27 250.634H343.239C342.812 250.634 342.465 250.301 342.465 249.89C342.465 249.477 342.812 249.144 343.239 249.144H375.27C375.697 249.144 376.043 249.477 376.043 249.89C376.043 250.301 375.697 250.634 375.27 250.634Z" fill="#091D3C"/>
<path fill-rule="evenodd" clip-rule="evenodd" d="M392.301 250.634H381.956C380.991 250.634 380.137 250.034 379.847 249.149L371.222 222.876C370.771 221.506 371.836 220.109 373.33 220.109H383.676C384.64 220.109 385.492 220.709 385.784 221.594L394.41 247.869C394.858 249.239 393.795 250.634 392.301 250.634Z" fill="url(#paint4_linear_11_181)"/>
<path fill-rule="evenodd" clip-rule="evenodd" d="M408.887 261.263H337.28C336.11 261.263 335.163 260.351 335.163 259.225C335.163 258.098 336.11 257.185 337.28 257.185H408.887C410.057 257.185 411.006 258.098 411.006 259.225C411.006 260.351 410.057 261.263 408.887 261.263Z" fill="#FFFFFE"/>
<path fill-rule="evenodd" clip-rule="evenodd" d="M433.8 196.716L433.354 196.823L426.721 200.192C426.49 200.311 426.32 200.512 426.246 200.754C426.172 200.997 426.202 201.253 426.334 201.473L428.715 205.505C428.976 205.943 429.556 206.102 430.016 205.862L436.526 202.459C436.753 202.34 436.918 202.144 436.992 201.906C437.064 201.667 437.038 201.417 436.913 201.199L434.651 197.2C434.475 196.892 434.143 196.716 433.8 196.716ZM429.563 206.768C428.937 206.768 428.325 206.454 427.998 205.899L425.615 201.867C425.374 201.457 425.316 200.984 425.453 200.532C425.591 200.079 425.905 199.708 426.338 199.49L432.967 196.119C433.826 195.681 434.911 195.994 435.377 196.819L437.639 200.818C437.869 201.222 437.92 201.689 437.784 202.131C437.649 202.572 437.342 202.937 436.922 203.159L430.41 206.56C430.143 206.701 429.851 206.768 429.563 206.768Z" fill="#3E367F"/>
<path fill-rule="evenodd" clip-rule="evenodd" d="M402.389 248.45C401.925 249.024 401.552 249.391 401.552 249.391C401.552 249.391 398.08 246.86 397.115 246.622C396.155 246.392 394.088 247.123 392.916 247.187C391.742 247.258 391.642 246.581 391.642 246.581C391.642 246.581 387.163 248.379 386.443 248.547C385.715 248.714 385.235 248.484 385.684 247.386C385.78 247.148 386.079 246.764 386.508 246.304L386.517 246.295C388.046 244.635 391.195 241.976 392.329 241.451C393.774 240.792 395.742 239.829 397.32 240.394C398.907 240.959 404.041 244.665 404.041 244.665C404.189 245.939 403.164 247.49 402.389 248.45Z" fill="#DBAE8A"/>
<path fill-rule="evenodd" clip-rule="evenodd" d="M403.454 244.888L402.389 248.45C401.925 249.024 401.553 249.391 401.553 249.391C401.553 249.391 398.08 246.86 397.115 246.622C396.155 246.392 394.088 247.123 392.916 247.187C391.742 247.258 391.642 246.581 391.642 246.581C391.642 246.581 387.163 248.379 386.443 248.547C385.715 248.714 385.235 248.484 385.684 247.386C385.78 247.148 386.079 246.764 386.508 246.304C386.13 246.81 385.706 247.331 385.958 247.975C386.262 248.76 391.069 246.553 394.543 244.538C394.598 244.506 394.876 244.372 394.974 244.53L394.784 244.905C394.204 245.502 391.292 245.712 391.881 246.607C392.712 247.863 395.7 245.555 397.338 246.072C398.974 246.59 401.023 248.029 401.023 248.029C401.023 248.029 401.958 245.348 403.454 244.888Z" fill="#F8CD9A"/>
<path fill-rule="evenodd" clip-rule="evenodd" d="M401.023 249.393C401.023 249.393 418.056 263.729 430.8 265.187C443.542 266.643 465.034 243.376 465.034 243.376C465.034 243.376 463.682 230.981 455.734 232.439C447.788 233.896 437.136 252.325 432.521 253.188C427.905 254.049 403.909 244.262 403.909 244.262C403.909 244.262 403.227 244.724 402.424 246.021C401.558 247.42 401.023 249.393 401.023 249.393Z" fill="#0881A6"/>
<path fill-rule="evenodd" clip-rule="evenodd" d="M458.972 178.743C454.313 173.61 447.423 173.057 442.103 173.623C435.122 174.366 429.055 178.897 427.037 185.374C426.167 188.171 425.998 191.446 427.355 195.05C431.693 206.586 436.24 213.944 440.477 216.131C442.092 216.966 445.186 216.41 448.488 215.292C448.922 215.144 449.405 215.319 449.623 215.709L451.017 218.219L463.276 215.669C463.276 215.669 461.7 212.381 460.863 208.93C462.645 206.763 467.499 188.136 458.972 178.743Z" fill="#DBAE8A"/>
<path fill-rule="evenodd" clip-rule="evenodd" d="M434.194 195.199C435.718 195.084 437.164 195.857 437.756 197.212C438.765 199.521 440.321 202.75 441.544 203.8C441.797 204.017 442.347 204.091 442.892 203.814C443.43 203.54 443.539 203.096 443.507 202.807C443.403 201.811 442.634 199.648 442.09 198.21C441.395 196.366 442.221 194.418 444.507 193.924C444.918 193.834 445.969 193.888 446.5 194.042C450.124 195.101 447.629 200.571 447.555 203.428C447.504 205.442 450.007 210.109 451.119 210.529C454.761 211.905 460.279 210.662 463.208 207.181C466.136 203.702 466.772 192.068 465.171 185.108C463.57 178.146 457.784 174.219 455.871 173.772C454.928 173.55 454.147 173.549 453.599 173.601C453.017 173.659 452.442 173.469 452.001 173.101C450.073 171.485 444.317 167.798 435.208 171.585C423.842 176.307 421.931 186.4 422.137 190.974C422.271 193.947 424.698 193.728 426.38 193.21C427.304 192.924 428.313 193.158 429.051 193.765C430.004 194.55 431.645 195.394 434.194 195.199Z" fill="#3E367F"/>
<path fill-rule="evenodd" clip-rule="evenodd" d="M450.637 220.109C450.637 220.109 449.581 218.977 449.984 218.285C450.479 217.428 455.859 213.33 462.141 213.546C463.116 213.58 464.31 213.58 465.48 216.031C466.652 218.485 466.926 220.109 466.926 220.109H450.637Z" fill="white"/>
<path fill-rule="evenodd" clip-rule="evenodd" d="M474.54 319.232C474.161 319.32 473.746 319.408 473.317 319.485C467.986 320.441 459.315 320.551 459.315 320.551C442.222 320.258 433.58 304.932 430.803 300.357C429.828 298.752 429.438 297.676 429.438 297.676C430.415 297.175 442.025 291.151 441.407 270.574C441.279 266.31 441.342 256.764 439.134 253.058C437.918 251.021 434.324 246.891 432.065 242.541C430.215 238.961 429.257 235.23 431.282 232.382C436.306 225.279 444.233 221.501 444.233 221.501C444.233 221.501 458.782 215.892 471.171 217.164C479.033 217.961 486.033 221.524 487.903 231.046C492.72 255.571 474.54 319.232 474.54 319.232Z" fill="#1397BF"/>
<path fill-rule="evenodd" clip-rule="evenodd" d="M446.159 265.189C448.272 285.432 433.953 298.178 430.803 300.357C429.828 298.752 429.438 297.676 429.438 297.676C430.415 297.175 441.331 288.055 441.407 270.574C441.426 266.308 441.342 256.764 439.134 253.058C437.918 251.021 434.324 246.893 432.065 242.541L433.025 242.184L438.862 241.253L441.82 243.576C441.82 243.576 444.792 252.075 446.159 265.189Z" fill="#0881A6"/>
<path fill-rule="evenodd" clip-rule="evenodd" d="M390.67 393.413C390.67 393.413 388.863 394.165 386.604 394.165C384.093 394.164 383.364 393.262 383.364 393.262V387.753L391.633 386.728L390.67 393.413Z" fill="#DBAE8A"/>
<path fill-rule="evenodd" clip-rule="evenodd" d="M455.634 316.378C455.585 319.959 454.599 325.671 449.022 327.283C440.7 329.685 434.556 328.32 424.91 326.718C416.829 325.383 395.55 320.974 391.64 319.545C391.132 319.36 390.633 319.773 390.733 320.282C392.578 328.961 394.053 332.712 395.25 345.736C396.253 356.678 391.886 387.647 391.886 387.647C391.886 387.647 390.559 388.041 389.134 388.262C388.594 388.34 388.047 388.396 387.547 388.396C385.452 388.396 382.928 388.022 382.928 388.022C382.928 388.022 374.3 342.411 373.133 323.93C371.976 305.45 373.802 303.923 382.53 300.007C391.258 296.09 430.278 297.542 430.278 297.542L430.289 297.553C430.397 297.877 432.591 303.647 439.066 308.87C442.917 311.991 448.295 314.908 455.634 316.378Z" fill="#ADC2D0"/>
<path fill-rule="evenodd" clip-rule="evenodd" d="M431.907 300.736C430.835 298.956 430.336 297.698 430.289 297.553L430.278 297.542C430.278 297.542 429.826 297.526 429.044 297.5C429.839 298.532 430.777 299.623 431.907 300.736Z" fill="#2A2946"/>
<path fill-rule="evenodd" clip-rule="evenodd" d="M391.886 387.647C391.886 387.647 392.107 386.082 392.437 383.531C392.107 386.082 391.886 387.647 391.886 387.647Z" fill="#4F5C99"/>
<path fill-rule="evenodd" clip-rule="evenodd" d="M390.721 320.155C390.717 319.788 391.025 319.499 391.392 319.499C391.41 319.499 391.427 319.501 391.447 319.502C391.427 319.501 391.41 319.499 391.392 319.499C391.025 319.499 390.719 319.788 390.721 320.155ZM393.093 319.998C392.483 319.825 391.991 319.673 391.64 319.545C391.635 319.543 391.629 319.54 391.624 319.538C391.629 319.54 391.635 319.543 391.64 319.545C391.991 319.673 392.483 319.825 393.093 319.998Z" fill="#5565A0"/>
<path fill-rule="evenodd" clip-rule="evenodd" d="M455.2 320.177C455.511 318.829 455.62 317.5 455.634 316.378C455.62 317.5 455.511 318.829 455.2 320.177ZM455.634 316.378C453.71 315.993 451.919 315.507 450.256 314.946C450.256 314.942 450.258 314.941 450.258 314.939C451.922 315.502 453.708 315.991 455.634 316.378Z" fill="#494276"/>
<path fill-rule="evenodd" clip-rule="evenodd" d="M383.223 392.494C383.223 392.494 385.379 393.313 387.327 393.313C389.666 393.313 391.371 392.494 391.371 392.494C391.371 392.494 395.535 397.596 393.322 403.282C393.208 403.58 392.9 403.773 392.571 403.773H364.644C364.305 403.773 364.016 403.517 364.013 403.191C364.002 402.528 364.278 401.472 365.974 400.973C368.553 400.214 371.212 399.793 373.207 399.115C375.201 398.433 378.066 395.613 379.671 395.094C381.706 394.433 383.223 392.494 383.223 392.494Z" fill="#091D3C"/>
<path fill-rule="evenodd" clip-rule="evenodd" d="M370.556 257.796C370.556 257.796 368.071 257.17 366.783 256.916C366.268 256.816 365.792 256.759 365.405 256.721C364.862 256.674 364.308 256.698 363.767 256.771L350.411 258.55C350.028 258.601 349.673 258.335 349.619 257.963C349.546 257.461 349.743 256.962 350.137 256.635L351.441 255.554L355.341 252.32C357.273 250.722 358.803 250.434 361.355 250.313C361.835 250.287 363.746 250.786 364.108 250.849C366.725 251.311 367.322 251.601 369.064 251.947C369.751 252.087 370.219 252.146 370.523 252.17C370.996 252.202 371.105 252.148 371.105 252.148C372.034 255.365 370.556 257.796 370.556 257.796Z" fill="#DBAE8A"/>
<path fill-rule="evenodd" clip-rule="evenodd" d="M390.939 259.071L390.858 259.091C390.517 258.956 388.429 258.129 387.295 257.743C386.875 257.603 386.48 257.494 386.139 257.412C385.645 257.293 384.826 257.202 384.318 257.202H370.917C370.504 257.202 370.134 256.889 370.143 256.49C370.152 255.991 370.414 255.534 370.844 255.27L372.293 254.369C370.924 255.37 370.702 256.124 371.389 256.204C371.936 256.266 373.237 256.128 376.525 255.248L376.562 255.378C375.806 255.825 376.087 256.76 377.019 256.718C377.572 256.691 379.922 256.549 380.464 256.519C382.564 256.403 385.627 256.212 386.216 256.317C387.404 256.527 388.313 256.874 389.16 257.298C389.735 257.586 390.283 256.955 390.492 256.365C390.791 255.526 391.225 254.391 391.675 253.535C392.139 253.631 392.253 253.591 392.253 253.591C392.68 256.639 391.178 258.756 390.939 259.071Z" fill="#F6F6F4"/>
<path fill-rule="evenodd" clip-rule="evenodd" d="M443.695 228.118C441.929 227.081 436.586 224.224 429.696 234.562C422.808 244.902 417.298 252.659 414.887 254.049C412.477 255.441 406.553 254.446 404.417 254.446C402.282 254.446 371.02 252.1 371.02 252.1C371.02 252.1 369.521 255.209 369.264 257.892C369.264 257.892 397.907 265.119 415.662 265.185C433.417 265.253 446.919 239.4 447.537 236.284C448.158 233.167 447.917 230.599 443.695 228.118Z" fill="#1397BF"/>
<path fill-rule="evenodd" clip-rule="evenodd" d="M426.559 204.044L426.19 203.827C426.084 203.631 426.165 203.392 426.369 203.293L441.771 195.695C443.514 194.835 447.08 193.076 449.731 196.816C449.857 196.997 449.81 197.244 449.622 197.367C449.434 197.491 449.177 197.447 449.049 197.264C446.984 194.347 444.519 195.233 442.177 196.388L426.747 204L426.559 204.044Z" fill="#3E367F"/>
<path fill-rule="evenodd" clip-rule="evenodd" d="M442.025 196.642L443.887 202.359C443.887 202.359 445.333 203.705 446.727 202.161C448.122 200.615 449.337 195.25 446.778 194.355C444.221 193.46 442.674 194.727 442.025 196.642Z" fill="#DBAE8A"/>
<path fill-rule="evenodd" clip-rule="evenodd" d="M512.031 279.441C512.031 250.566 511.326 230.22 492.323 227.16C466.464 222.996 446.24 244.541 450.377 285.821C452.75 309.475 442.672 317.593 434.088 322.214C428.54 325.201 417.794 324.56 417.794 324.56C417.794 324.56 412.818 323.993 409.479 323.69C411.546 324.607 455.817 345.603 487.407 330.089C515.409 316.339 512.031 296.426 512.031 279.441Z" fill="#EAF5F4"/>
<path fill-rule="evenodd" clip-rule="evenodd" d="M512.031 279.441C512.031 250.566 511.326 230.22 492.323 227.16C491.409 227.013 490.502 226.902 489.604 226.817C468.89 228.791 455.314 249.788 458.93 285.834C461.299 309.487 451.221 317.606 442.639 322.227C437.089 325.213 426.346 324.571 426.346 324.571C426.346 324.571 426.093 324.495 425.631 324.363C421.469 324.778 417.794 324.56 417.794 324.56C417.794 324.56 412.818 323.993 409.479 323.69C411.546 324.607 455.817 345.603 487.407 330.089C515.409 316.339 512.031 296.426 512.031 279.441Z" fill="#CDDEDA"/>
<path fill-rule="evenodd" clip-rule="evenodd" d="M151.586 102.901C151.603 102.617 151.616 102.329 151.616 102.042C151.616 94.1513 144.969 87.7543 136.768 87.7543C135.214 87.7543 133.713 87.9861 132.304 88.4123L132.307 88.2635C132.307 78.4971 124.084 70.5813 113.935 70.5813C105.849 70.5813 98.9857 75.6116 96.5322 82.5972C94.3967 81.3641 91.8992 80.6554 89.2295 80.6554C81.3732 80.6554 75.0056 86.7835 75.0056 94.3442C75.0056 95.2119 75.0935 96.061 75.2534 96.8847C68.3744 97.8437 63.0912 103.542 63.0912 110.428C63.0912 117.989 69.4588 124.117 77.3133 124.117H147.972C154.224 124.117 159.293 119.239 159.293 113.224C159.293 108.424 156.064 104.352 151.586 102.901Z" fill="#7C8DBA"/>
<path fill-rule="evenodd" clip-rule="evenodd" d="M144.187 98.1081L144.626 98.1318C144.644 97.8426 144.656 97.5482 144.656 97.2489C144.656 89.1249 137.812 82.5385 129.369 82.5385C127.769 82.5385 126.224 82.777 124.773 83.2168L124.904 83.6193L125.344 83.6295L125.347 83.4789V83.4705C125.347 73.4707 116.927 65.3654 106.536 65.3654C98.2563 65.3671 91.2296 70.5158 88.7163 77.6689L89.1329 77.8042L89.3596 77.4405C87.1574 76.1703 84.5808 75.4396 81.8302 75.4396C73.7314 75.4396 67.1669 81.7571 67.1669 89.5512C67.1669 90.4476 67.2583 91.3221 67.4235 92.1695L67.8541 92.0917L67.7926 91.6722C60.6991 92.6634 55.2525 98.536 55.2525 105.635C55.2525 113.429 61.8152 119.745 69.914 119.747H140.573C147.067 119.745 152.333 114.679 152.333 108.431C152.331 103.443 148.979 99.2143 144.327 97.7072L144.187 98.1081L144.626 98.1318L144.187 98.1081L144.046 98.509C148.35 99.9027 151.454 103.817 151.454 108.431C151.454 111.323 150.236 113.938 148.268 115.834C146.297 117.729 143.58 118.899 140.573 118.901H69.914C66.1071 118.899 62.6641 117.416 60.1684 115.016C57.6726 112.614 56.1312 109.299 56.1312 105.635C56.1295 98.9606 61.2528 93.4398 67.9174 92.5095L68.3709 92.4452L68.2865 92.0122C68.1318 91.2138 68.0457 90.3918 68.0457 89.5512C68.0457 85.8858 69.5871 82.5723 72.0828 80.1705C74.5786 77.7687 78.0216 76.2853 81.8302 76.2853C84.4191 76.2853 86.8375 76.972 88.9061 78.1661L89.3737 78.4368L89.5494 77.9395C91.945 71.1213 98.643 66.2111 106.536 66.2111C111.491 66.2111 115.971 68.1427 119.217 71.2668C122.463 74.3909 124.469 78.7023 124.469 83.4705H124.908L124.469 83.4603L124.465 83.6109L124.453 84.1995L125.038 84.0236C126.405 83.6092 127.861 83.3842 129.369 83.3842C133.349 83.3842 136.947 84.9353 139.557 87.4453C142.165 89.9554 143.777 93.4195 143.777 97.2489C143.777 97.5263 143.765 97.8037 143.749 98.0827L143.728 98.4058L144.046 98.509L144.187 98.1081Z" fill="white"/>
<path fill-rule="evenodd" clip-rule="evenodd" d="M497.648 116.585C497.659 116.272 497.673 115.957 497.673 115.641V115.389L497.471 115.408C495.657 105.318 486.523 97.6424 475.523 97.6424C473.999 97.6424 472.51 97.7896 471.071 98.0704C466.269 91.0932 458.042 86.4892 448.695 86.4892C434.608 86.4892 423.068 96.9405 421.965 110.223C419.523 108.897 416.708 108.138 413.706 108.138C404.412 108.138 396.877 115.389 396.877 124.333V124.496C396.877 133.35 404.336 140.529 413.537 140.529H471.811C472.452 140.529 473.085 140.498 473.712 140.454C474.31 140.502 474.913 140.529 475.523 140.529C487.829 140.529 497.803 130.928 497.803 119.085C497.803 118.239 497.747 117.407 497.648 116.585Z" fill="#7C8DBA"/>
<path fill-rule="evenodd" clip-rule="evenodd" d="M490.618 113.202L491.056 113.219C491.068 112.906 491.082 112.586 491.082 112.258V111.544L490.402 111.604L490.441 112.025L490.873 111.952C489.024 101.663 479.711 93.8367 468.492 93.8367C466.939 93.8367 465.42 93.9873 463.954 94.2731L464.04 94.6875L464.408 94.4541C459.529 87.3636 451.165 82.6834 441.665 82.6834C427.348 82.6851 415.618 93.3056 414.497 106.807L414.934 106.84L415.151 106.473C412.646 105.112 409.755 104.332 406.676 104.332C397.139 104.332 389.408 111.773 389.408 120.95V121.113C389.408 130.201 397.064 137.569 406.507 137.569H464.78C465.436 137.569 466.079 137.538 466.714 137.494L466.682 137.071L466.647 137.493C467.255 137.54 467.868 137.569 468.492 137.569C481.041 137.569 491.212 127.779 491.212 115.702C491.212 114.838 491.154 113.988 491.054 113.153L490.618 113.202L491.056 113.219L490.618 113.202L490.181 113.251C490.279 114.058 490.333 114.875 490.333 115.702C490.333 121.509 487.89 126.76 483.936 130.566C479.983 134.37 474.524 136.723 468.492 136.723C467.897 136.723 467.306 136.696 466.717 136.65L466.684 136.649L466.65 136.65C466.03 136.694 465.408 136.723 464.78 136.723H406.507C402.027 136.723 397.974 134.976 395.037 132.151C392.1 129.325 390.286 125.424 390.286 121.113V120.95C390.286 116.593 392.12 112.654 395.086 109.797C398.053 106.942 402.148 105.178 406.676 105.178C409.6 105.178 412.34 105.917 414.718 107.209L415.317 107.534L415.372 106.874C416.458 93.8097 427.81 83.5292 441.665 83.5292C450.861 83.5292 458.951 88.0571 463.675 94.9209L463.838 95.1594L464.128 95.1019C465.538 94.8262 466.997 94.6824 468.492 94.6824C479.277 94.6808 488.23 102.208 490.008 112.096L490.077 112.48L490.681 112.427L490.643 112.006H490.203V112.258C490.203 112.563 490.191 112.872 490.179 113.187L490.177 113.221L490.181 113.251L490.618 113.202Z" fill="white"/>
<path fill-rule="evenodd" clip-rule="evenodd" d="M279.633 93.1483H277.421C277.997 92.8794 278.568 92.5986 279.129 92.3043C279.292 92.5884 279.463 92.8675 279.633 93.1483ZM358.386 70.7825C354.808 70.7825 351.431 71.5826 348.401 72.9746C347.215 54.3621 331.163 39.6162 311.524 39.6162C306.793 39.6162 302.276 40.4806 298.118 42.0401C291.98 27.0963 276.848 16.5181 259.137 16.5181C236.503 16.5181 218.072 33.7893 217.268 55.3838L217.228 55.3821C199.976 55.3821 185.987 68.8442 185.987 85.4489C185.987 102.052 199.976 115.514 217.228 115.514H358.386C371.22 115.514 381.624 105.501 381.624 93.1483C381.624 80.7958 371.22 70.7825 358.386 70.7825Z" fill="white"/>
<path d="M262.221 122.962V203.888" stroke="#25326A" stroke-width="3.17789" stroke-linecap="round" stroke-dasharray="4.77 5.96"/>
<path d="M350.846 211.178V164.518C350.846 148.01 336.957 134.627 319.824 134.627H207.647C190.514 134.627 176.625 148.01 176.625 164.518V211.178" stroke="#25326A" stroke-width="3.17789" stroke-linecap="round" stroke-dasharray="4.77 4.77"/>
<g filter="url(#filter0_d_11_181)">
<rect x="39.7516" y="8.20258" width="182.609" height="84.3692" rx="11" fill="white"/>
</g>
<path d="M202.004 123.709L142.857 77.7179L202.004 76.1667L202.004 123.709Z" fill="white"/>
<defs>
<filter id="filter0_d_11_181" x="35.7516" y="8.20258" width="190.609" height="92.3692" filterUnits="userSpaceOnUse" color-interpolation-filters="sRGB">
<feFlood flood-opacity="0" result="BackgroundImageFix"/>
<feColorMatrix in="SourceAlpha" type="matrix" values="0 0 0 0 0 0 0 0 0 0 0 0 0 0 0 0 0 0 127 0" result="hardAlpha"/>
<feOffset dy="4"/>
<feGaussianBlur stdDeviation="2"/>
<feComposite in2="hardAlpha" operator="out"/>
<feColorMatrix type="matrix" values="0 0 0 0 0.642104 0 0 0 0 0.865824 0 0 0 0 0.991667 0 0 0 0.25 0"/>
<feBlend mode="normal" in2="BackgroundImageFix" result="effect1_dropShadow_11_181"/>
<feBlend mode="normal" in="SourceGraphic" in2="effect1_dropShadow_11_181" result="shape"/>
</filter>
<linearGradient id="paint0_linear_11_181" x1="269.427" y1="217.086" x2="273.879" y2="286.452" gradientUnits="userSpaceOnUse">
<stop stop-color="#FFFFFE"/>
<stop offset="1" stop-color="#D4D4CF"/>
</linearGradient>
<linearGradient id="paint1_linear_11_181" x1="167.051" y1="245.715" x2="165.203" y2="278.558" gradientUnits="userSpaceOnUse">
<stop stop-color="#FFFFFE"/>
<stop offset="1" stop-color="#D4D4CF"/>
</linearGradient>
<linearGradient id="paint2_linear_11_181" x1="167.051" y1="245.715" x2="149.424" y2="254.984" gradientUnits="userSpaceOnUse">
<stop stop-color="#CFCECA"/>
<stop offset="1" stop-color="#ADAEAA"/>
</linearGradient>
<linearGradient id="paint3_linear_11_181" x1="166.775" y1="246.825" x2="160.541" y2="288.963" gradientUnits="userSpaceOnUse">
<stop stop-color="white"/>
<stop offset="1" stop-color="#ADAEAA"/>
</linearGradient>
<linearGradient id="paint4_linear_11_181" x1="394.513" y1="220.109" x2="364.379" y2="245.234" gradientUnits="userSpaceOnUse">
<stop stop-color="#F06799"/>
<stop offset="0.441154" stop-color="#E0126F"/>
<stop offset="1" stop-color="#25336F"/>
</linearGradient>
</defs>
</svg>
